<?xml version="1.0" encoding="utf-8" ?>
<svg xmlns="http://www.w3.org/2000/svg" xmlns:xlink="http://www.w3.org/1999/xlink" width="256" height="256">
	<path fill="#A7AAAD" d="M70.1411 168.063C73.6989 167.851 77.5249 169.007 80.5828 170.803C84.3783 173.032 86.4827 176.748 87.5561 180.904C88.7458 185.509 87.4999 189.775 85.1106 193.769C83.5383 196.397 61.3885 218.707 58.4943 220.661C55.9164 222.402 52.8593 223.117 49.8848 223.854C46.7144 224.093 42.9587 222.98 40.264 221.29C36.4225 218.881 33.4814 214.91 32.5015 210.479C31.587 206.344 32.6884 201.947 34.9404 198.421C37.383 194.597 58.1562 173.627 62.0173 171.09C64.4325 169.503 67.3457 168.672 70.1411 168.063Z"/>
	<path fill="#A7AAAD" d="M207.195 32.0778C210.576 32.0783 214.416 33.4339 217.041 35.5535C220.795 38.5837 223.398 42.576 223.87 47.467C224.292 51.8504 222.385 56.3597 219.652 59.7022C216.576 63.4644 212.701 66.8336 209.263 70.2878C205.211 74.3602 198.662 81.8444 194.331 84.7254C191.645 86.5123 188.376 87.7152 185.166 88.0249C181.542 88.0519 177.564 86.7223 174.603 84.6392C171.187 82.2363 169.008 77.8034 168.303 73.7305C167.598 69.6592 169.167 64.6559 171.55 61.2985C174.586 57.0205 179.175 53.2542 182.896 49.5493C187.44 45.0249 193.361 37.968 198.719 34.6694C201.298 33.0819 204.261 32.5859 207.195 32.0778Z"/>
	<path fill="#A7AAAD" d="M47.4655 32.0579C50.7592 31.7361 55.7351 33.4402 58.4273 35.3626C61.9714 37.8933 68.0746 44.7235 71.3934 48.0318C75.2285 51.8548 81.657 57.3448 84.6349 61.5497Q85.2626 62.4193 85.7826 63.3573Q86.3025 64.2953 86.7073 65.2884Q87.112 66.2816 87.3959 67.3158Q87.6798 68.35 87.8387 69.4106C88.4697 73.4472 86.8007 78.6876 84.3674 81.9494C81.7501 85.4581 77.1792 87.274 72.9663 87.9243C69.3587 88.1228 65.5904 87.0398 62.5228 85.1464C58.193 82.4739 52.4494 75.625 48.6016 71.817C44.3674 67.6266 39.2627 63.5588 35.704 58.787C34.1995 56.7698 33.212 54.4817 32.6502 52.0349C31.765 48.1795 32.2364 43.8432 34.4092 40.4717C37.724 35.3283 41.6703 33.317 47.4655 32.0579Z"/>
	<path fill="#A7AAAD" d="M182.899 168.057C186.582 167.737 190.07 168.868 193.242 170.676C197.798 173.273 203.592 180.266 207.5 184.129C211.713 188.294 216.692 192.413 220.293 197.119C221.7 198.958 222.663 201.021 223.26 203.254C224.436 207.658 223.462 211.856 221.191 215.746C218.52 220.324 214.238 222.415 209.285 223.713C205.856 224.181 201.518 222.93 198.564 221.194C197.433 220.529 196.387 219.712 195.419 218.831C191.736 215.477 188.359 211.573 184.805 208.051C180.632 203.916 175.227 199.425 171.724 194.801Q170.632 193.363 169.852 191.735Q169.071 190.107 168.633 188.355C167.507 183.943 168.37 179.407 170.691 175.521C173.49 170.835 177.898 169.296 182.899 168.057Z"/>
	<path fill="#A7AAAD" d="M122.132 0L133.882 0C136.538 2.14846 139.434 3.29979 141.551 6.15549Q142.001 6.76173 142.371 7.41964Q142.741 8.07756 143.026 8.77674Q143.311 9.47593 143.506 10.2053Q143.7 10.9347 143.802 11.6828C144.552 16.8705 143.954 24.3805 143.968 29.8496L144.022 43.5274C144.032 46.2935 144.236 49.2034 143.81 51.9383Q143.697 52.6389 143.515 53.325Q143.334 54.0111 143.087 54.6762Q142.839 55.3413 142.527 55.9789Q142.216 56.6166 141.844 57.2207Q141.471 57.8249 141.041 58.3896Q140.612 58.9544 140.129 59.4744Q139.646 59.9945 139.114 60.4647Q138.583 60.935 138.008 61.351C133.994 64.2702 128.636 64.6305 123.849 63.8424C120.142 63.2321 116.934 61.023 114.768 58.0029C113.492 56.222 112.604 54.1982 112.267 52.0244C111.813 49.0945 111.994 45.9936 111.996 43.0335L112.025 28.9592C112.024 24.2362 111.389 15.8277 112.176 11.4612C112.79 8.05833 115.192 4.42704 118.039 2.44682C119.339 1.54204 120.816 0.90359 122.132 0Z"/>
	<path fill="#A7AAAD" d="M256 133.66C253.948 136.567 253.054 139.342 249.943 141.496C248.153 142.735 246.077 143.642 243.915 143.951C241.294 144.325 238.536 144.142 235.89 144.13L223.103 144.064Q217.341 144.051 211.58 144.1C208.911 144.115 206.062 144.318 203.432 143.801C199.713 143.069 196.45 140.494 194.39 137.377C191.817 133.485 191.277 127.661 192.256 123.133C193.067 119.379 195.808 116.002 199.016 113.974C200.274 113.178 201.693 112.456 203.183 112.261C208.726 111.538 216.788 112.044 222.546 112.049C228.064 112.055 241.073 111.439 245.854 112.576C250.69 113.727 253.565 118.369 256 122.286L256 133.66Z"/>
	<path fill="#A7AAAD" d="M0 122.272C2.33826 118.748 5.39287 113.517 9.94483 112.523C10.118 112.485 10.2931 112.462 10.4681 112.435C13.9549 111.888 17.518 112.035 21.0372 112.032L35.3968 112.031C40.7054 112.034 47.7184 111.523 52.7536 112.309C54.6151 112.6 56.3643 113.436 57.8843 114.529C60.9964 116.769 63.1784 120.052 63.8097 123.862C64.5794 128.507 64.2011 134.121 61.4012 138.034C59.2621 141.024 55.764 143.225 52.132 143.804C49.2062 144.27 46.0273 144.03 43.0717 144.026L26.9894 143.985C22.1202 143.972 16.6304 144.559 11.8514 143.838Q11.0744 143.724 10.3175 143.515Q9.5606 143.306 8.83533 143.005Q8.11007 142.704 7.42757 142.315Q6.74508 141.927 6.11582 141.457C2.55572 138.81 2.33275 136.096 0 133.624L0 122.272Z"/>
	<path fill="#A7AAAD" d="M122.124 256C117.737 253.161 113.582 250.231 112.399 244.774C111.701 241.556 112.011 237.908 112.015 234.621L112.042 219.553C112.05 214.773 111.547 209.126 112.17 204.444C112.458 202.272 113.229 200.272 114.426 198.444C116.44 195.371 119.487 193.101 123.124 192.352C127.645 191.421 133.716 191.771 137.619 194.393C140.739 196.49 143.072 199.879 143.787 203.578C144.348 206.48 144.074 209.705 144.064 212.661L144.013 227.068C144.005 232.221 144.572 238.816 143.909 243.779Q143.8 244.586 143.596 245.374Q143.391 246.162 143.094 246.921Q142.797 247.679 142.411 248.396Q142.026 249.113 141.557 249.779C139.36 252.956 136.47 253.741 133.672 256L122.124 256Z"/>
</svg>